<mxfile host="drawio-plugin" modified="2024-01-10T16:32:03.302Z" agent="5.0 (Windows NT 6.2; Win64; x64) AppleWebKit/537.36 (KHTML, like Gecko) Chrome/104.0.5112.102 Safari/537.36" etag="PGRMT9INGP44FYPtJoRt" version="20.5.3" type="embed"><diagram id="23iRSUPoRavnBvh4doch" name="Page-1"><mxGraphModel dx="2194" dy="878" grid="1" gridSize="10" guides="1" tooltips="1" connect="1" arrows="1" fold="1" page="1" pageScale="1" pageWidth="827" pageHeight="1169" math="0" shadow="0"><root><mxCell id="0"/><mxCell id="1" parent="0"/><mxCell id="2" style="edgeStyle=orthogonalEdgeStyle;rounded=0;orthogonalLoop=1;jettySize=auto;html=1;entryX=0.5;entryY=0;entryDx=0;entryDy=0;fontColor=#FFFFFF;labelBackgroundColor=none;" edge="1" parent="1" source="3" target="7"><mxGeometry relative="1" as="geometry"/></mxCell><mxCell id="3" value="Початок" style="ellipse;whiteSpace=wrap;html=1;fontColor=#FFFFFF;labelBackgroundColor=none;" vertex="1" parent="1"><mxGeometry x="95" y="100" width="120" height="80" as="geometry"/></mxCell><mxCell id="4" value="Кінець" style="ellipse;whiteSpace=wrap;html=1;fontColor=#FFFFFF;labelBackgroundColor=none;" vertex="1" parent="1"><mxGeometry x="-110" y="370" width="120" height="80" as="geometry"/></mxCell><mxCell id="5" value="Найкращий - O (n)&lt;br&gt;Середній - O(n&lt;sup&gt;2&lt;/sup&gt;)&lt;br&gt;Найгірший - O(n&lt;sup style=&quot;border-color: var(--border-color);&quot;&gt;2&lt;/sup&gt;)" style="text;html=1;align=center;verticalAlign=middle;resizable=0;points=[];autosize=1;strokeColor=none;fillColor=none;fontColor=#FFFFFF;labelBackgroundColor=none;" vertex="1" parent="1"><mxGeometry x="270" y="180" width="130" height="60" as="geometry"/></mxCell><mxCell id="6" style="edgeStyle=orthogonalEdgeStyle;rounded=0;orthogonalLoop=1;jettySize=auto;html=1;entryX=0.5;entryY=0;entryDx=0;entryDy=0;fontColor=#FFFFFF;labelBackgroundColor=none;" edge="1" parent="1" source="7" target="10"><mxGeometry relative="1" as="geometry"/></mxCell><mxCell id="7" value="Вводимо:&lt;br&gt;int[] array" style="shape=parallelogram;perimeter=parallelogramPerimeter;whiteSpace=wrap;html=1;fixedSize=1;fontColor=#FFFFFF;labelBackgroundColor=none;" vertex="1" parent="1"><mxGeometry x="82.5" y="220" width="145" height="60" as="geometry"/></mxCell><mxCell id="8" style="edgeStyle=orthogonalEdgeStyle;rounded=0;orthogonalLoop=1;jettySize=auto;html=1;entryX=0.5;entryY=0;entryDx=0;entryDy=0;fontColor=#FFFFFF;labelBackgroundColor=none;" edge="1" parent="1" source="10" target="13"><mxGeometry relative="1" as="geometry"/></mxCell><mxCell id="9" style="edgeStyle=orthogonalEdgeStyle;rounded=0;orthogonalLoop=1;jettySize=auto;html=1;entryX=0.5;entryY=0;entryDx=0;entryDy=0;fontColor=#FFFFFF;labelBackgroundColor=none;" edge="1" parent="1" source="10" target="4"><mxGeometry relative="1" as="geometry"/></mxCell><mxCell id="10" value="&lt;div style=&quot;font-family: &amp;quot;JetBrains Mono&amp;quot;, monospace;&quot;&gt;&lt;pre&gt;int i = &lt;span style=&quot;&quot;&gt;1&lt;/span&gt;&lt;span style=&quot;&quot;&gt;;i&amp;lt;&lt;/span&gt;array.&lt;span style=&quot;&quot;&gt;length&lt;/span&gt;&lt;span style=&quot;&quot;&gt;; &lt;/span&gt;i++&lt;/pre&gt;&lt;/div&gt;" style="shape=hexagon;perimeter=hexagonPerimeter2;whiteSpace=wrap;html=1;fixedSize=1;fontColor=#FFFFFF;labelBackgroundColor=none;" vertex="1" parent="1"><mxGeometry x="58.75" y="310" width="192.5" height="80" as="geometry"/></mxCell><mxCell id="11" style="edgeStyle=orthogonalEdgeStyle;rounded=0;orthogonalLoop=1;jettySize=auto;html=1;entryX=0.5;entryY=0;entryDx=0;entryDy=0;fontColor=#FFFFFF;labelBackgroundColor=none;" edge="1" parent="1" source="13" target="22"><mxGeometry relative="1" as="geometry"/></mxCell><mxCell id="12" style="edgeStyle=orthogonalEdgeStyle;rounded=0;orthogonalLoop=1;jettySize=auto;html=1;entryX=1;entryY=0.5;entryDx=0;entryDy=0;exitX=1;exitY=0.5;exitDx=0;exitDy=0;fontColor=#FFFFFF;labelBackgroundColor=none;" edge="1" parent="1" source="13" target="10"><mxGeometry relative="1" as="geometry"><Array as="points"><mxPoint x="310" y="475"/><mxPoint x="310" y="350"/></Array></mxGeometry></mxCell><mxCell id="13" value="&lt;div style=&quot;font-family: &amp;quot;JetBrains Mono&amp;quot;, monospace;&quot;&gt;&lt;pre&gt;array[i] &amp;lt; array[i - 1]&lt;/pre&gt;&lt;/div&gt;" style="rhombus;whiteSpace=wrap;html=1;fontColor=#FFFFFF;labelBackgroundColor=none;" vertex="1" parent="1"><mxGeometry x="71.25" y="420" width="167.5" height="110" as="geometry"/></mxCell><mxCell id="14" style="edgeStyle=orthogonalEdgeStyle;rounded=0;orthogonalLoop=1;jettySize=auto;html=1;entryX=0;entryY=0.5;entryDx=0;entryDy=0;fontColor=#FFFFFF;labelBackgroundColor=none;" edge="1" parent="1" source="15" target="17"><mxGeometry relative="1" as="geometry"/></mxCell><mxCell id="15" value="&lt;div style=&quot;font-family: &amp;quot;JetBrains Mono&amp;quot;, monospace;&quot;&gt;&lt;pre&gt;swap(array&lt;span style=&quot;&quot;&gt;, &lt;/span&gt;i&lt;span style=&quot;&quot;&gt;, &lt;/span&gt;i - &lt;span style=&quot;&quot;&gt;1&lt;/span&gt;)&lt;/pre&gt;&lt;/div&gt;" style="ellipse;whiteSpace=wrap;html=1;fontColor=#FFFFFF;labelBackgroundColor=none;" vertex="1" parent="1"><mxGeometry x="335" y="560" width="155" height="90" as="geometry"/></mxCell><mxCell id="16" style="edgeStyle=orthogonalEdgeStyle;rounded=0;orthogonalLoop=1;jettySize=auto;html=1;entryX=0;entryY=0.5;entryDx=0;entryDy=0;fontColor=#FFFFFF;labelBackgroundColor=none;" edge="1" parent="1" source="17" target="24"><mxGeometry relative="1" as="geometry"/></mxCell><mxCell id="17" value="&lt;div style=&quot;font-family: &amp;quot;JetBrains Mono&amp;quot;, monospace;&quot;&gt;&lt;pre&gt;int tmp = array[i]&lt;span style=&quot;&quot;&gt;;&lt;br&gt;&lt;/span&gt;array[i] = array[i-1]&lt;span style=&quot;&quot;&gt;;&lt;br&gt;&lt;/span&gt;array[i-1] = tmp&lt;span style=&quot;&quot;&gt;;&lt;/span&gt;&lt;/pre&gt;&lt;/div&gt;" style="rounded=0;whiteSpace=wrap;html=1;fontColor=#FFFFFF;labelBackgroundColor=none;" vertex="1" parent="1"><mxGeometry x="560" y="562.5" width="190" height="85" as="geometry"/></mxCell><mxCell id="18" style="edgeStyle=orthogonalEdgeStyle;rounded=0;orthogonalLoop=1;jettySize=auto;html=1;entryX=0.5;entryY=0;entryDx=0;entryDy=0;fontColor=#FFFFFF;labelBackgroundColor=none;" edge="1" parent="1" source="19" target="27"><mxGeometry relative="1" as="geometry"/></mxCell><mxCell id="19" value="&lt;div style=&quot;font-family: &amp;quot;JetBrains Mono&amp;quot;, monospace;&quot;&gt;&lt;pre&gt;int z = i - &lt;span style=&quot;&quot;&gt;1&lt;/span&gt;&lt;span style=&quot;&quot;&gt;; &lt;/span&gt;(z - &lt;span style=&quot;&quot;&gt;1&lt;/span&gt;) &amp;gt;= &lt;span style=&quot;&quot;&gt;0&lt;/span&gt;&lt;span style=&quot;&quot;&gt;; &lt;/span&gt;z--&lt;/pre&gt;&lt;/div&gt;" style="shape=hexagon;perimeter=hexagonPerimeter2;whiteSpace=wrap;html=1;fixedSize=1;fontColor=#FFFFFF;labelBackgroundColor=none;" vertex="1" parent="1"><mxGeometry x="41.25" y="690" width="227.5" height="120" as="geometry"/></mxCell><mxCell id="20" style="edgeStyle=orthogonalEdgeStyle;rounded=0;orthogonalLoop=1;jettySize=auto;html=1;entryX=0;entryY=0.5;entryDx=0;entryDy=0;fontColor=#FFFFFF;labelBackgroundColor=none;" edge="1" parent="1" source="22" target="15"><mxGeometry relative="1" as="geometry"/></mxCell><mxCell id="21" style="edgeStyle=orthogonalEdgeStyle;rounded=0;orthogonalLoop=1;jettySize=auto;html=1;entryX=0.5;entryY=0;entryDx=0;entryDy=0;fontColor=#FFFFFF;labelBackgroundColor=none;" edge="1" parent="1" source="22" target="19"><mxGeometry relative="1" as="geometry"/></mxCell><mxCell id="22" value="&lt;pre style=&quot;border-color: var(--border-color);&quot;&gt;swap(array, i&lt;span style=&quot;border-color: var(--border-color);&quot;&gt;, &lt;/span&gt;i - &lt;span style=&quot;border-color: var(--border-color);&quot;&gt;1&lt;/span&gt;)&lt;/pre&gt;" style="rounded=0;whiteSpace=wrap;html=1;fontColor=#FFFFFF;labelBackgroundColor=none;" vertex="1" parent="1"><mxGeometry x="82.5" y="570" width="145" height="70" as="geometry"/></mxCell><mxCell id="23" style="edgeStyle=orthogonalEdgeStyle;rounded=0;orthogonalLoop=1;jettySize=auto;html=1;entryX=1;entryY=0;entryDx=0;entryDy=0;fontColor=#FFFFFF;labelBackgroundColor=none;" edge="1" parent="1" source="24" target="22"><mxGeometry relative="1" as="geometry"><Array as="points"><mxPoint x="898" y="550"/><mxPoint x="228" y="550"/></Array></mxGeometry></mxCell><mxCell id="24" value="&lt;div style=&quot;font-family: &amp;quot;JetBrains Mono&amp;quot;, monospace;&quot;&gt;&lt;pre&gt;кінець&lt;/pre&gt;&lt;/div&gt;" style="ellipse;whiteSpace=wrap;html=1;fontColor=#FFFFFF;labelBackgroundColor=none;" vertex="1" parent="1"><mxGeometry x="820" y="560" width="155" height="90" as="geometry"/></mxCell><mxCell id="25" style="edgeStyle=orthogonalEdgeStyle;rounded=0;orthogonalLoop=1;jettySize=auto;html=1;entryX=0.5;entryY=0;entryDx=0;entryDy=0;fontColor=#FFFFFF;labelBackgroundColor=none;" edge="1" parent="1" source="27" target="33"><mxGeometry relative="1" as="geometry"/></mxCell><mxCell id="26" style="edgeStyle=orthogonalEdgeStyle;rounded=0;orthogonalLoop=1;jettySize=auto;html=1;entryX=0.5;entryY=0;entryDx=0;entryDy=0;fontColor=#FFFFFF;labelBackgroundColor=none;" edge="1" parent="1" source="27" target="29"><mxGeometry relative="1" as="geometry"/></mxCell><mxCell id="27" value="&lt;div style=&quot;font-family: &amp;quot;JetBrains Mono&amp;quot;, monospace;&quot;&gt;&lt;pre&gt;array[z] &amp;lt; array[z - 1]&lt;/pre&gt;&lt;/div&gt;" style="rhombus;whiteSpace=wrap;html=1;fontColor=#FFFFFF;labelBackgroundColor=none;" vertex="1" parent="1"><mxGeometry x="62.5" y="850" width="185" height="130" as="geometry"/></mxCell><mxCell id="28" style="edgeStyle=orthogonalEdgeStyle;rounded=0;orthogonalLoop=1;jettySize=auto;html=1;entryX=0.5;entryY=0;entryDx=0;entryDy=0;fontColor=#FFFFFF;labelBackgroundColor=none;" edge="1" parent="1" source="29" target="31"><mxGeometry relative="1" as="geometry"/></mxCell><mxCell id="29" value="&lt;div style=&quot;font-family: &amp;quot;JetBrains Mono&amp;quot;, monospace;&quot;&gt;&lt;pre&gt;&lt;div style=&quot;font-family: &amp;quot;JetBrains Mono&amp;quot;, monospace;&quot;&gt;&lt;pre&gt;&lt;div style=&quot;font-family: &amp;quot;JetBrains Mono&amp;quot;, monospace;&quot;&gt;&lt;pre&gt;swap(array&lt;span style=&quot;&quot;&gt;, &lt;/span&gt;z&lt;span style=&quot;&quot;&gt;, &lt;/span&gt;z - &lt;span style=&quot;&quot;&gt;1&lt;/span&gt;)&lt;span style=&quot;&quot;&gt;;&lt;/span&gt;&lt;/pre&gt;&lt;/div&gt;&lt;/pre&gt;&lt;/div&gt;&lt;/pre&gt;&lt;/div&gt;" style="ellipse;whiteSpace=wrap;html=1;fontColor=#FFFFFF;labelBackgroundColor=none;" vertex="1" parent="1"><mxGeometry x="317.5" y="940" width="155" height="90" as="geometry"/></mxCell><mxCell id="30" style="edgeStyle=orthogonalEdgeStyle;rounded=0;orthogonalLoop=1;jettySize=auto;html=1;entryX=1;entryY=0.5;entryDx=0;entryDy=0;fontColor=#FFFFFF;labelBackgroundColor=none;" edge="1" parent="1" source="31" target="19"><mxGeometry relative="1" as="geometry"><Array as="points"><mxPoint x="530" y="1113"/><mxPoint x="530" y="750"/></Array></mxGeometry></mxCell><mxCell id="31" value="&lt;div style=&quot;font-family: &amp;quot;JetBrains Mono&amp;quot;, monospace;&quot;&gt;&lt;pre&gt;int tmp = array[z]&lt;span style=&quot;&quot;&gt;;&lt;br&gt;&lt;/span&gt;array[z] = array[z-1]&lt;span style=&quot;&quot;&gt;;&lt;br&gt;&lt;/span&gt;array[z-1] = tmp&lt;span style=&quot;&quot;&gt;;&lt;/span&gt;&lt;/pre&gt;&lt;/div&gt;" style="rounded=0;whiteSpace=wrap;html=1;fontColor=#FFFFFF;labelBackgroundColor=none;" vertex="1" parent="1"><mxGeometry x="300" y="1070" width="190" height="85" as="geometry"/></mxCell><mxCell id="32" style="edgeStyle=orthogonalEdgeStyle;rounded=0;orthogonalLoop=1;jettySize=auto;html=1;entryX=0;entryY=0.5;entryDx=0;entryDy=0;fontColor=#FFFFFF;labelBackgroundColor=none;" edge="1" parent="1" source="33" target="19"><mxGeometry relative="1" as="geometry"><Array as="points"><mxPoint x="-160" y="1040"/><mxPoint x="-160" y="750"/></Array></mxGeometry></mxCell><mxCell id="33" value="break;" style="rounded=0;whiteSpace=wrap;html=1;fontColor=#FFFFFF;labelBackgroundColor=none;" vertex="1" parent="1"><mxGeometry x="-79" y="1010" width="120" height="60" as="geometry"/></mxCell><mxCell id="34" value="Так" style="text;html=1;align=center;verticalAlign=middle;resizable=0;points=[];autosize=1;strokeColor=none;fillColor=none;fontColor=#FFFFFF;labelBackgroundColor=none;" vertex="1" parent="1"><mxGeometry x="160" y="520" width="40" height="30" as="geometry"/></mxCell><mxCell id="35" value="Так" style="text;html=1;align=center;verticalAlign=middle;resizable=0;points=[];autosize=1;strokeColor=none;fillColor=none;fontColor=#FFFFFF;labelBackgroundColor=none;" vertex="1" parent="1"><mxGeometry x="230" y="930" width="40" height="30" as="geometry"/></mxCell><mxCell id="36" value="&lt;div style=&quot;text-align: center;&quot;&gt;&lt;span style=&quot;&quot;&gt;Ні&lt;/span&gt;&lt;/div&gt;" style="text;whiteSpace=wrap;html=1;fontColor=#FFFFFF;labelBackgroundColor=none;" vertex="1" parent="1"><mxGeometry x="41.25" y="925" width="50" height="40" as="geometry"/></mxCell><mxCell id="37" value="&lt;div style=&quot;text-align: center;&quot;&gt;&lt;span style=&quot;&quot;&gt;Ні&lt;/span&gt;&lt;/div&gt;" style="text;whiteSpace=wrap;html=1;fontColor=#FFFFFF;labelBackgroundColor=none;" vertex="1" parent="1"><mxGeometry x="45" y="320" width="50" height="40" as="geometry"/></mxCell><mxCell id="38" value="Так" style="text;html=1;align=center;verticalAlign=middle;resizable=0;points=[];autosize=1;strokeColor=none;fillColor=none;fontColor=#FFFFFF;labelBackgroundColor=none;" vertex="1" parent="1"><mxGeometry x="150" y="390" width="40" height="30" as="geometry"/></mxCell><mxCell id="39" value="&lt;div style=&quot;text-align: center;&quot;&gt;&lt;span style=&quot;&quot;&gt;Ні&lt;/span&gt;&lt;/div&gt;" style="text;whiteSpace=wrap;html=1;fontColor=#FFFFFF;labelBackgroundColor=none;" vertex="1" parent="1"><mxGeometry x="238.75" y="450" width="50" height="40" as="geometry"/></mxCell></root></mxGraphModel></diagram></mxfile>